<?xml version="1.0" encoding="iso-8859-1"?>
<!-- Generator: Adobe Illustrator 19.0.0, SVG Export Plug-In . SVG Version: 6.00 Build 0)  -->
<svg version="1.1" id="Layer_1" xmlns="http://www.w3.org/2000/svg" xmlns:xlink="http://www.w3.org/1999/xlink" x="0px" y="0px"
	 viewBox="0 0 499.188 499.188" style="enable-background:new 0 0 499.188 499.188;" xml:space="preserve">
<polygon style="fill:#1DDD6B;" points="19.68,448.634 249.505,50.55 479.354,448.634 "/>
<polygon style="fill:#0DBC82;" points="249.309,457.015 249.505,50.55 479.354,448.634 "/>
<path style="fill:#00AD73;" d="M479.504,468.327c0,0-0.102,0.008-0.15,0H19.68c-7.034,0-13.533-3.757-17.046-9.846
	c-3.513-6.089-3.513-13.603,0-19.692L232.46,40.704c3.513-6.089,10.012-9.846,17.046-9.846c7.05,0,13.548,3.757,17.061,9.846
	l228.706,396.13c2.458,3.293,3.915,7.373,3.915,11.792C499.196,459.504,490.374,468.327,479.504,468.327z M53.803,428.942h391.436
	L249.505,89.935L53.803,428.942z"/>
<polygon style="fill:#55FF9A;" points="172.501,363.957 249.505,230.554 326.542,363.957 "/>
<g>
	<path style="fill:#00AD73;" d="M326.691,383.65c0,0-0.095,0.008-0.158,0H172.501c-7.042,0-13.548-3.757-17.054-9.846
		c-3.521-6.089-3.521-13.603,0-19.692l77.013-133.404c3.513-6.089,10.012-9.846,17.046-9.846c7.05,0,13.548,3.757,17.061,9.846
		l75.894,131.45c2.465,3.293,3.923,7.373,3.923,11.792C346.384,374.828,337.569,383.65,326.691,383.65z M206.6,344.265h85.827
		l-42.921-74.327L206.6,344.265z"/>
	<circle style="fill:#00AD73;" cx="217.588" cy="182.639" r="8.373"/>
	<circle style="fill:#00AD73;" cx="249.592" cy="182.639" r="8.373"/>
	<circle style="fill:#00AD73;" cx="281.588" cy="182.639" r="8.365"/>
</g>
<g>
</g>
<g>
</g>
<g>
</g>
<g>
</g>
<g>
</g>
<g>
</g>
<g>
</g>
<g>
</g>
<g>
</g>
<g>
</g>
<g>
</g>
<g>
</g>
<g>
</g>
<g>
</g>
<g>
</g>
</svg>
